<svg xmlns="http://www.w3.org/2000/svg" xmlns:xlink="http://www.w3.org/1999/xlink" width="215" height="40" version="1.1" viewBox="0 0 215 40"><g id="surface1"><path style="stroke:none;fill-rule:nonzero;fill:#0bb8e0;fill-opacity:1" d="M 56.71875 35.191406 C 56.359375 35.621094 55.941406 35.949219 55.453125 36.175781 C 54.96875 36.402344 54.429688 36.511719 53.828125 36.511719 C 53.289062 36.511719 52.789062 36.414062 52.328125 36.21875 C 51.867188 36.023438 51.46875 35.757812 51.132812 35.421875 C 50.792969 35.085938 50.527344 34.6875 50.332031 34.222656 C 50.136719 33.761719 50.039062 33.265625 50.039062 32.734375 C 50.039062 32.199219 50.136719 31.703125 50.332031 31.242188 C 50.527344 30.78125 50.792969 30.382812 51.132812 30.046875 C 51.46875 29.707031 51.867188 29.441406 52.328125 29.246094 C 52.789062 29.050781 53.289062 28.953125 53.828125 28.953125 C 54.40625 28.953125 54.917969 29.054688 55.359375 29.257812 C 55.800781 29.460938 56.191406 29.753906 56.535156 30.136719 L 55.574219 31.066406 C 55.359375 30.820312 55.113281 30.621094 54.832031 30.472656 C 54.554688 30.324219 54.222656 30.25 53.839844 30.25 C 53.5 30.25 53.183594 30.308594 52.886719 30.425781 C 52.589844 30.546875 52.332031 30.710938 52.113281 30.925781 C 51.894531 31.144531 51.722656 31.40625 51.59375 31.710938 C 51.464844 32.015625 51.402344 32.359375 51.402344 32.738281 C 51.402344 33.113281 51.464844 33.457031 51.59375 33.761719 C 51.722656 34.070312 51.894531 34.328125 52.113281 34.542969 C 52.332031 34.761719 52.589844 34.925781 52.886719 35.046875 C 53.183594 35.164062 53.5 35.222656 53.839844 35.222656 C 54.242188 35.222656 54.601562 35.140625 54.914062 34.976562 C 55.226562 34.808594 55.503906 34.574219 55.75 34.273438 Z M 56.71875 35.191406"/><path style="stroke:none;fill-rule:evenodd;fill:#0bb8e0;fill-opacity:1" d="M 71.238281 36.515625 C 70.699219 36.515625 70.199219 36.417969 69.738281 36.222656 C 69.273438 36.027344 68.875 35.757812 68.539062 35.417969 C 68.203125 35.078125 67.9375 34.675781 67.746094 34.214844 C 67.554688 33.753906 67.457031 33.261719 67.457031 32.734375 C 67.457031 32.210938 67.554688 31.714844 67.746094 31.253906 C 67.9375 30.792969 68.203125 30.394531 68.539062 30.054688 C 68.875 29.714844 69.273438 29.445312 69.738281 29.25 C 70.199219 29.054688 70.699219 28.957031 71.238281 28.957031 C 71.777344 28.957031 72.277344 29.054688 72.738281 29.25 C 73.199219 29.445312 73.597656 29.714844 73.933594 30.054688 C 74.273438 30.394531 74.535156 30.792969 74.726562 31.253906 C 74.921875 31.714844 75.015625 32.210938 75.015625 32.734375 C 75.015625 33.261719 74.921875 33.753906 74.726562 34.214844 C 74.535156 34.675781 74.273438 35.078125 73.933594 35.417969 C 73.597656 35.757812 73.199219 36.027344 72.738281 36.222656 C 72.277344 36.414062 71.777344 36.515625 71.238281 36.515625 Z M 71.238281 35.21875 C 71.574219 35.21875 71.890625 35.160156 72.179688 35.039062 C 72.472656 34.917969 72.730469 34.75 72.949219 34.535156 C 73.167969 34.316406 73.339844 34.054688 73.464844 33.75 C 73.589844 33.445312 73.652344 33.105469 73.652344 32.734375 C 73.652344 32.363281 73.589844 32.023438 73.464844 31.71875 C 73.339844 31.414062 73.167969 31.152344 72.949219 30.9375 C 72.730469 30.71875 72.472656 30.550781 72.179688 30.429688 C 71.890625 30.308594 71.574219 30.25 71.238281 30.25 C 70.898438 30.25 70.585938 30.308594 70.292969 30.429688 C 70 30.550781 69.742188 30.722656 69.523438 30.9375 C 69.304688 31.152344 69.132812 31.414062 69.007812 31.71875 C 68.882812 32.023438 68.820312 32.363281 68.820312 32.734375 C 68.820312 33.105469 68.882812 33.445312 69.007812 33.75 C 69.132812 34.054688 69.304688 34.316406 69.523438 34.535156 C 69.742188 34.75 70 34.917969 70.292969 35.039062 C 70.585938 35.160156 70.898438 35.21875 71.238281 35.21875 Z M 71.238281 35.21875"/><path style="stroke:none;fill-rule:nonzero;fill:#0bb8e0;fill-opacity:1" d="M 86.222656 29.117188 L 87.566406 29.117188 L 89.777344 32.945312 L 89.859375 32.945312 L 92.070312 29.117188 L 93.425781 29.117188 L 93.425781 36.351562 L 92.070312 36.351562 L 92.070312 32.785156 L 92.152344 31.574219 L 92.070312 31.574219 L 90.234375 34.816406 L 89.414062 34.816406 L 87.566406 31.574219 L 87.484375 31.574219 L 87.566406 32.785156 L 87.566406 36.351562 L 86.21875 36.351562 L 86.21875 29.117188 Z M 86.222656 29.117188"/><path style="stroke:none;fill-rule:evenodd;fill:#0bb8e0;fill-opacity:1" d="M 104.984375 36.351562 L 104.984375 29.117188 L 107.53125 29.117188 C 107.875 29.117188 108.195312 29.171875 108.496094 29.285156 C 108.796875 29.394531 109.058594 29.550781 109.28125 29.753906 C 109.503906 29.957031 109.675781 30.195312 109.804688 30.476562 C 109.933594 30.753906 109.996094 31.0625 109.996094 31.398438 C 109.996094 31.742188 109.933594 32.054688 109.804688 32.335938 C 109.675781 32.613281 109.5 32.855469 109.28125 33.054688 C 109.058594 33.257812 108.796875 33.414062 108.496094 33.527344 C 108.195312 33.636719 107.875 33.695312 107.53125 33.695312 L 106.351562 33.695312 L 106.351562 36.351562 Z M 107.550781 32.402344 C 107.90625 32.402344 108.179688 32.300781 108.359375 32.097656 C 108.542969 31.894531 108.632812 31.664062 108.632812 31.402344 C 108.632812 31.273438 108.609375 31.148438 108.566406 31.027344 C 108.523438 30.90625 108.457031 30.800781 108.363281 30.707031 C 108.273438 30.617188 108.160156 30.542969 108.027344 30.492188 C 107.890625 30.4375 107.734375 30.410156 107.550781 30.410156 L 106.347656 30.410156 L 106.347656 32.402344 Z M 107.550781 32.402344"/><path style="stroke:none;fill-rule:nonzero;fill:#0bb8e0;fill-opacity:1" d="M 121.070312 29.117188 L 122.433594 29.117188 L 122.433594 36.351562 L 121.070312 36.351562 Z M 121.070312 29.117188"/><path style="stroke:none;fill-rule:nonzero;fill:#0bb8e0;fill-opacity:1" d="M 133.992188 29.117188 L 135.355469 29.117188 L 135.355469 35.058594 L 138.417969 35.058594 L 138.417969 36.355469 L 133.992188 36.355469 Z M 133.992188 29.117188"/><path style="stroke:none;fill-rule:nonzero;fill:#0bb8e0;fill-opacity:1" d="M 150.859375 30.410156 L 150.859375 32.089844 L 153.757812 32.089844 L 153.757812 33.382812 L 150.859375 33.382812 L 150.859375 35.058594 L 154.082031 35.058594 L 154.082031 36.355469 L 149.496094 36.355469 L 149.496094 29.117188 L 154.082031 29.117188 L 154.082031 30.414062 L 150.859375 30.414062 Z M 150.859375 30.410156"/><path style="stroke:none;fill-rule:evenodd;fill:#0bb8e0;fill-opacity:1" d="M 165.4375 29.117188 L 168.074219 29.117188 C 168.4375 29.117188 168.769531 29.175781 169.066406 29.289062 C 169.359375 29.402344 169.613281 29.5625 169.828125 29.765625 C 170.039062 29.964844 170.203125 30.207031 170.316406 30.484375 C 170.433594 30.765625 170.488281 31.070312 170.488281 31.402344 C 170.488281 31.644531 170.449219 31.871094 170.367188 32.082031 C 170.289062 32.292969 170.175781 32.488281 170.035156 32.660156 C 169.894531 32.832031 169.730469 32.980469 169.539062 33.113281 C 169.351562 33.246094 169.152344 33.347656 168.945312 33.421875 L 168.933594 33.492188 L 170.875 36.273438 L 170.875 36.351562 L 169.308594 36.351562 L 167.441406 33.632812 L 166.804688 33.632812 L 166.804688 36.351562 L 165.441406 36.351562 L 165.441406 29.117188 Z M 168.0625 32.378906 C 168.375 32.378906 168.628906 32.285156 168.828125 32.097656 C 169.023438 31.910156 169.125 31.671875 169.125 31.378906 C 169.125 31.253906 169.101562 31.128906 169.058594 31.007812 C 169.015625 30.886719 168.949219 30.777344 168.863281 30.683594 C 168.773438 30.589844 168.664062 30.515625 168.535156 30.457031 C 168.402344 30.398438 168.253906 30.371094 168.085938 30.371094 L 166.800781 30.371094 L 166.800781 32.382812 L 168.0625 32.382812 Z M 168.0625 32.378906"/><path style="stroke:none;fill-rule:nonzero;fill:#000;fill-opacity:1" d="M 0.113281 8.191406 L 2.738281 8.191406 L 2.738281 19.621094 L 8.625 19.621094 L 8.625 22.109375 L 0.113281 22.109375 Z M 0.113281 8.191406"/><path style="stroke:none;fill-rule:evenodd;fill:#000;fill-opacity:1" d="M 14.550781 8.191406 L 17.542969 8.191406 L 22.769531 22.105469 L 19.875 22.105469 L 18.730469 18.785156 L 13.367188 18.785156 L 12.21875 22.105469 L 9.324219 22.105469 Z M 17.875 16.375 L 16.628906 12.894531 L 16.125 11.203125 L 15.96875 11.203125 L 15.464844 12.894531 L 14.222656 16.375 Z M 17.875 16.375"/><path style="stroke:none;fill-rule:nonzero;fill:#000;fill-opacity:1" d="M 26.09375 22.109375 L 26.09375 10.679688 L 22.207031 10.679688 L 22.207031 8.191406 L 32.605469 8.191406 L 32.605469 10.679688 L 28.71875 10.679688 L 28.71875 22.109375 Z M 26.09375 22.109375"/><path style="stroke:none;fill-rule:nonzero;fill:#000;fill-opacity:1" d="M 37.421875 22.109375 L 37.421875 10.679688 L 33.535156 10.679688 L 33.535156 8.191406 L 43.933594 8.191406 L 43.933594 10.679688 L 40.046875 10.679688 L 40.046875 22.109375 Z M 37.421875 22.109375"/><path style="stroke:none;fill-rule:nonzero;fill:#000;fill-opacity:1" d="M 45.796875 8.191406 L 48.421875 8.191406 L 48.421875 22.105469 L 45.796875 22.105469 Z M 45.796875 8.191406"/><path style="stroke:none;fill-rule:nonzero;fill:#000;fill-opacity:1" d="M 63.1875 19.871094 C 62.503906 20.703125 61.695312 21.332031 60.761719 21.765625 C 59.828125 22.199219 58.785156 22.417969 57.632812 22.417969 C 56.597656 22.417969 55.632812 22.230469 54.746094 21.855469 C 53.859375 21.480469 53.089844 20.96875 52.445312 20.320312 C 51.796875 19.671875 51.285156 18.902344 50.910156 18.015625 C 50.53125 17.128906 50.34375 16.175781 50.34375 15.148438 C 50.34375 14.125 50.53125 13.171875 50.910156 12.285156 C 51.285156 11.398438 51.796875 10.628906 52.445312 9.980469 C 53.089844 9.332031 53.859375 8.820312 54.746094 8.445312 C 55.632812 8.070312 56.597656 7.882812 57.632812 7.882812 C 58.746094 7.882812 59.726562 8.078125 60.578125 8.464844 C 61.421875 8.855469 62.179688 9.417969 62.839844 10.15625 L 60.996094 11.945312 C 60.578125 11.464844 60.105469 11.082031 59.566406 10.796875 C 59.027344 10.511719 58.390625 10.367188 57.652344 10.367188 C 57.003906 10.367188 56.394531 10.484375 55.824219 10.707031 C 55.253906 10.9375 54.761719 11.253906 54.339844 11.671875 C 53.917969 12.085938 53.582031 12.585938 53.335938 13.175781 C 53.089844 13.765625 52.96875 14.421875 52.96875 15.148438 C 52.96875 15.875 53.089844 16.53125 53.335938 17.121094 C 53.582031 17.710938 53.917969 18.214844 54.339844 18.628906 C 54.757812 19.042969 55.253906 19.363281 55.824219 19.589844 C 56.394531 19.816406 57.003906 19.929688 57.652344 19.929688 C 58.429688 19.929688 59.117188 19.773438 59.722656 19.453125 C 60.324219 19.136719 60.859375 18.6875 61.324219 18.101562 L 63.191406 19.871094 Z M 63.1875 19.871094"/><path style="stroke:none;fill-rule:nonzero;fill:#000;fill-opacity:1" d="M 67.910156 10.679688 L 67.910156 13.90625 L 73.488281 13.90625 L 73.488281 16.394531 L 67.910156 16.394531 L 67.910156 19.621094 L 74.109375 19.621094 L 74.109375 22.105469 L 65.289062 22.105469 L 65.289062 8.191406 L 74.109375 8.191406 L 74.109375 10.679688 Z M 67.910156 10.679688"/><path style="stroke:none;fill-rule:nonzero;fill:#000;fill-opacity:1" d="M 84.46875 22.417969 C 83.871094 22.417969 83.300781 22.335938 82.757812 22.167969 C 82.214844 22 81.714844 21.746094 81.261719 21.410156 C 80.808594 21.074219 80.410156 20.660156 80.074219 20.175781 C 79.738281 19.6875 79.472656 19.125 79.277344 18.472656 L 81.746094 17.503906 C 81.925781 18.203125 82.246094 18.78125 82.699219 19.242188 C 83.152344 19.703125 83.746094 19.933594 84.484375 19.933594 C 84.757812 19.933594 85.019531 19.898438 85.273438 19.824219 C 85.523438 19.753906 85.75 19.648438 85.953125 19.515625 C 86.152344 19.378906 86.3125 19.207031 86.429688 19 C 86.542969 18.792969 86.601562 18.550781 86.601562 18.277344 C 86.601562 18.019531 86.558594 17.785156 86.464844 17.578125 C 86.375 17.371094 86.222656 17.179688 86.011719 16.996094 C 85.796875 16.816406 85.515625 16.640625 85.175781 16.472656 C 84.832031 16.304688 84.40625 16.128906 83.902344 15.945312 L 83.046875 15.636719 C 82.671875 15.507812 82.292969 15.332031 81.910156 15.113281 C 81.527344 14.890625 81.179688 14.625 80.871094 14.316406 C 80.558594 14.003906 80.304688 13.636719 80.105469 13.21875 C 79.902344 12.796875 79.800781 12.320312 79.800781 11.789062 C 79.800781 11.246094 79.910156 10.734375 80.121094 10.261719 C 80.335938 9.789062 80.640625 9.375 81.035156 9.019531 C 81.429688 8.664062 81.902344 8.386719 82.453125 8.183594 C 83.003906 7.984375 83.617188 7.882812 84.292969 7.882812 C 84.992188 7.882812 85.597656 7.976562 86.109375 8.164062 C 86.621094 8.351562 87.054688 8.589844 87.410156 8.882812 C 87.765625 9.175781 88.054688 9.496094 88.277344 9.84375 C 88.496094 10.191406 88.65625 10.523438 88.761719 10.835938 L 86.449219 11.808594 C 86.320312 11.417969 86.082031 11.066406 85.738281 10.757812 C 85.394531 10.445312 84.925781 10.289062 84.332031 10.289062 C 83.757812 10.289062 83.289062 10.421875 82.910156 10.6875 C 82.535156 10.953125 82.347656 11.300781 82.347656 11.730469 C 82.347656 12.144531 82.527344 12.496094 82.890625 12.789062 C 83.253906 13.078125 83.828125 13.359375 84.621094 13.632812 L 85.496094 13.925781 C 86.050781 14.117188 86.558594 14.34375 87.019531 14.59375 C 87.480469 14.847656 87.875 15.148438 88.207031 15.5 C 88.535156 15.847656 88.789062 16.246094 88.964844 16.695312 C 89.136719 17.140625 89.226562 17.65625 89.226562 18.238281 C 89.226562 18.964844 89.078125 19.589844 88.789062 20.117188 C 88.496094 20.640625 88.125 21.070312 87.671875 21.40625 C 87.21875 21.746094 86.703125 21.996094 86.136719 22.167969 C 85.566406 22.335938 85.007812 22.417969 84.464844 22.417969 Z M 84.46875 22.417969"/><path style="stroke:none;fill-rule:nonzero;fill:#000;fill-opacity:1" d="M 96.476562 22.417969 C 95.660156 22.417969 94.917969 22.285156 94.25 22.019531 C 93.582031 21.757812 93.015625 21.371094 92.550781 20.863281 C 92.082031 20.359375 91.722656 19.746094 91.460938 19.027344 C 91.203125 18.308594 91.074219 17.488281 91.074219 16.570312 L 91.074219 8.191406 L 93.699219 8.191406 L 93.699219 16.726562 C 93.699219 17.191406 93.753906 17.621094 93.871094 18.007812 C 93.988281 18.398438 94.164062 18.734375 94.398438 19.019531 C 94.628906 19.304688 94.921875 19.527344 95.269531 19.6875 C 95.621094 19.851562 96.023438 19.933594 96.476562 19.933594 C 96.941406 19.933594 97.351562 19.851562 97.699219 19.6875 C 98.050781 19.527344 98.34375 19.304688 98.574219 19.019531 C 98.808594 18.734375 98.984375 18.398438 99.097656 18.007812 C 99.214844 17.621094 99.273438 17.191406 99.273438 16.726562 L 99.273438 8.191406 L 101.898438 8.191406 L 101.898438 16.570312 C 101.898438 17.4375 101.769531 18.230469 101.519531 18.949219 C 101.265625 19.671875 100.902344 20.285156 100.429688 20.796875 C 99.957031 21.308594 99.386719 21.707031 98.71875 21.992188 C 98.050781 22.277344 97.304688 22.417969 96.476562 22.417969 Z M 96.476562 22.417969"/><path style="stroke:none;fill-rule:evenodd;fill:#000;fill-opacity:1" d="M 104.386719 8.191406 L 109.457031 8.191406 C 110.15625 8.191406 110.792969 8.304688 111.363281 8.523438 C 111.933594 8.742188 112.421875 9.046875 112.828125 9.4375 C 113.238281 9.824219 113.550781 10.289062 113.773438 10.824219 C 113.992188 11.363281 114.101562 11.949219 114.101562 12.585938 C 114.101562 13.050781 114.023438 13.488281 113.867188 13.898438 C 113.710938 14.304688 113.5 14.675781 113.226562 15.003906 C 112.953125 15.335938 112.636719 15.628906 112.273438 15.878906 C 111.910156 16.132812 111.53125 16.328125 111.128906 16.472656 L 111.109375 16.609375 L 114.839844 21.953125 L 114.839844 22.109375 L 111.828125 22.109375 L 108.234375 16.878906 L 107.007812 16.878906 L 107.007812 22.109375 L 104.386719 22.109375 Z M 109.4375 14.46875 C 110.03125 14.46875 110.523438 14.289062 110.902344 13.925781 C 111.285156 13.5625 111.476562 13.105469 111.476562 12.546875 C 111.476562 12.300781 111.433594 12.0625 111.351562 11.828125 C 111.265625 11.59375 111.140625 11.386719 110.972656 11.207031 C 110.804688 11.023438 110.59375 10.878906 110.339844 10.769531 C 110.089844 10.660156 109.800781 10.601562 109.476562 10.601562 L 107.007812 10.601562 L 107.007812 14.472656 L 109.4375 14.472656 Z M 109.4375 14.46875"/><path style="stroke:none;fill-rule:nonzero;fill:#000;fill-opacity:1" d="M 123.039062 14.46875 L 129.859375 14.46875 C 129.898438 14.625 129.929688 14.8125 129.957031 15.035156 C 129.984375 15.253906 129.996094 15.472656 129.996094 15.695312 C 129.996094 16.589844 129.859375 17.429688 129.585938 18.222656 C 129.316406 19.011719 128.886719 19.71875 128.304688 20.339844 C 127.683594 21 126.9375 21.511719 126.070312 21.875 C 125.203125 22.238281 124.210938 22.417969 123.097656 22.417969 C 122.085938 22.417969 121.132812 22.234375 120.242188 21.875 C 119.347656 21.511719 118.570312 21.007812 117.910156 20.359375 C 117.246094 19.710938 116.722656 18.945312 116.335938 18.054688 C 115.945312 17.167969 115.753906 16.199219 115.753906 15.148438 C 115.753906 14.101562 115.945312 13.132812 116.335938 12.242188 C 116.722656 11.355469 117.246094 10.589844 117.910156 9.941406 C 118.570312 9.292969 119.347656 8.789062 120.242188 8.425781 C 121.132812 8.0625 122.085938 7.882812 123.097656 7.882812 C 124.222656 7.882812 125.230469 8.074219 126.117188 8.464844 C 127.007812 8.851562 127.765625 9.390625 128.402344 10.078125 L 126.59375 11.847656 C 126.140625 11.367188 125.636719 11 125.078125 10.746094 C 124.523438 10.496094 123.855469 10.371094 123.078125 10.371094 C 122.441406 10.371094 121.839844 10.484375 121.269531 10.710938 C 120.699219 10.9375 120.199219 11.257812 119.773438 11.671875 C 119.347656 12.085938 119.007812 12.585938 118.753906 13.175781 C 118.5 13.765625 118.375 14.425781 118.375 15.148438 C 118.375 15.875 118.5 16.535156 118.753906 17.125 C 119.003906 17.714844 119.347656 18.214844 119.785156 18.628906 C 120.21875 19.042969 120.71875 19.363281 121.289062 19.589844 C 121.859375 19.816406 122.46875 19.929688 123.117188 19.929688 C 123.855469 19.929688 124.480469 19.824219 124.992188 19.609375 C 125.503906 19.398438 125.941406 19.121094 126.304688 18.785156 C 126.5625 18.550781 126.785156 18.257812 126.972656 17.898438 C 127.160156 17.542969 127.304688 17.144531 127.410156 16.703125 L 123.039062 16.703125 Z M 123.039062 14.46875"/><path style="stroke:none;fill-rule:nonzero;fill:#000;fill-opacity:1" d="M 134.796875 10.679688 L 134.796875 13.90625 L 140.371094 13.90625 L 140.371094 16.394531 L 134.796875 16.394531 L 134.796875 19.621094 L 140.996094 19.621094 L 140.996094 22.105469 L 132.171875 22.105469 L 132.171875 8.191406 L 140.996094 8.191406 L 140.996094 10.679688 Z M 134.796875 10.679688"/><path style="stroke:none;fill-rule:evenodd;fill:#000;fill-opacity:1" d="M 143.402344 8.191406 L 148.476562 8.191406 C 149.175781 8.191406 149.808594 8.304688 150.378906 8.523438 C 150.949219 8.742188 151.4375 9.046875 151.847656 9.4375 C 152.253906 9.824219 152.570312 10.289062 152.789062 10.824219 C 153.011719 11.363281 153.121094 11.949219 153.121094 12.585938 C 153.121094 13.050781 153.042969 13.488281 152.886719 13.898438 C 152.730469 14.304688 152.519531 14.675781 152.246094 15.003906 C 151.972656 15.335938 151.65625 15.628906 151.292969 15.878906 C 150.929688 16.132812 150.546875 16.328125 150.148438 16.472656 L 150.128906 16.609375 L 153.859375 21.953125 L 153.859375 22.109375 L 150.847656 22.109375 L 147.25 16.878906 L 146.027344 16.878906 L 146.027344 22.109375 L 143.402344 22.109375 Z M 148.457031 14.46875 C 149.050781 14.46875 149.539062 14.289062 149.921875 13.925781 C 150.304688 13.5625 150.496094 13.105469 150.496094 12.546875 C 150.496094 12.300781 150.453125 12.0625 150.367188 11.828125 C 150.285156 11.59375 150.15625 11.386719 149.992188 11.207031 C 149.820312 11.023438 149.613281 10.878906 149.359375 10.769531 C 149.105469 10.660156 148.816406 10.601562 148.496094 10.601562 L 146.027344 10.601562 L 146.027344 14.472656 L 148.457031 14.472656 Z M 148.457031 14.46875"/><path style="stroke:none;fill-rule:nonzero;fill:#000;fill-opacity:1" d="M 158.582031 15.636719 L 153.898438 8.191406 L 157.027344 8.191406 L 159.804688 12.800781 L 159.960938 12.800781 L 162.644531 8.191406 L 165.808594 8.191406 L 161.203125 15.636719 L 161.203125 22.109375 L 158.582031 22.109375 Z M 158.582031 15.636719"/><path style="stroke:none;fill-rule:evenodd;fill:#000;fill-opacity:1" d="M 215.019531 16.097656 C 207.980469 25.007812 200.082031 33.101562 190.992188 39.917969 C 181.910156 33.109375 173.96875 25.023438 166.964844 16.097656 C 176.539062 12.695312 183.953125 7.308594 190.992188 0.0820312 C 198.121094 7.320312 205.382812 12.671875 215.019531 16.097656 Z M 196.894531 7.582031 C 195.117188 9.414062 194.203125 10.3125 192.15625 12.199219 C 194.292969 14.066406 195.449219 15.003906 198.105469 16.777344 C 200.136719 14.75 201.058594 13.808594 202.738281 11.921875 C 200.105469 10.234375 198.996094 9.347656 196.890625 7.582031 Z M 190.992188 13.25 C 188.851562 15.140625 187.691406 16.09375 185.03125 17.910156 C 187.160156 19.960938 188.328125 21.019531 190.992188 23.089844 C 193.65625 21.019531 194.824219 19.960938 196.949219 17.910156 C 194.289062 16.09375 193.128906 15.140625 190.992188 13.25 Z M 186.238281 6.601562 C 188.027344 8.421875 188.941406 9.34375 190.992188 11.175781 C 193.042969 9.34375 193.957031 8.425781 195.746094 6.601562 C 193.722656 4.824219 192.8125 3.921875 190.992188 2.105469 C 189.167969 3.921875 188.261719 4.824219 186.238281 6.601562 Z M 179.246094 11.921875 C 180.925781 13.808594 181.847656 14.75 183.878906 16.777344 C 186.53125 15.003906 187.691406 14.066406 189.828125 12.199219 C 187.78125 10.3125 186.867188 9.414062 185.089844 7.582031 C 182.988281 9.347656 181.875 10.234375 179.246094 11.921875 Z M 174.457031 21.835938 C 177.183594 20.617188 179.835938 19.386719 182.355469 17.765625 C 180.308594 15.734375 179.40625 14.746094 177.742188 12.84375 C 175.304688 14.316406 172.554688 15.601562 169.863281 16.53125 C 171.492188 18.523438 172.398438 19.582031 174.457031 21.835938 Z M 181.601562 29.222656 C 184.324219 27.679688 186.972656 26.125 189.472656 24.234375 C 187.402344 22.589844 185.390625 20.785156 183.519531 18.910156 C 181 20.5625 178.351562 21.839844 175.628906 23.105469 C 177.515625 25.226562 179.523438 27.289062 181.601562 29.222656 Z M 198.871094 30.652344 C 196.148438 29.03125 193.488281 27.398438 190.992188 25.4375 C 188.496094 27.398438 185.839844 29.03125 183.113281 30.652344 C 185.605469 32.953125 188.234375 35.105469 190.992188 37.078125 C 193.753906 35.105469 196.378906 32.953125 198.871094 30.652344 Z M 206.359375 23.105469 C 203.632812 21.84375 200.984375 20.5625 198.46875 18.914062 C 196.597656 20.785156 194.585938 22.59375 192.511719 24.238281 C 195.011719 26.128906 197.664062 27.679688 200.386719 29.222656 C 202.460938 27.289062 204.46875 25.226562 206.355469 23.105469 Z M 207.53125 21.835938 C 209.589844 19.582031 210.496094 18.519531 212.121094 16.53125 C 209.429688 15.601562 206.679688 14.316406 204.242188 12.84375 C 202.578125 14.746094 201.675781 15.734375 199.628906 17.765625 C 202.148438 19.386719 204.800781 20.617188 207.53125 21.835938 Z M 207.53125 21.835938"/><path style="stroke:none;fill-rule:nonzero;fill:#0bb8e0;fill-opacity:1" d="M 194.820312 17.996094 C 193.394531 19.300781 192.636719 19.960938 190.992188 21.265625 C 189.347656 19.960938 188.585938 19.300781 187.160156 17.996094 C 188.804688 16.789062 189.5625 16.175781 190.992188 14.945312 C 192.417969 16.175781 193.175781 16.789062 194.820312 17.996094 Z M 194.820312 17.996094"/></g></svg>